<svg width="24" height="16" viewBox="0 0 24 16" fill="none" xmlns="http://www.w3.org/2000/svg">
<path d="M0.598011 15V0.454545H5.78267C6.9143 0.454545 7.8518 0.660511 8.59517 1.07244C9.33854 1.48437 9.89489 2.04782 10.2642 2.76278C10.6335 3.47301 10.8182 4.2732 10.8182 5.16335C10.8182 6.05824 10.6312 6.86316 10.2571 7.57812C9.88778 8.28835 9.32907 8.8518 8.58097 9.26847C7.83759 9.6804 6.90246 9.88636 5.77557 9.88636H2.21023V8.02557H5.5767C6.29167 8.02557 6.87169 7.90246 7.31676 7.65625C7.76184 7.4053 8.08854 7.06439 8.29688 6.63352C8.50521 6.20265 8.60938 5.71259 8.60938 5.16335C8.60938 4.61411 8.50521 4.12642 8.29688 3.70028C8.08854 3.27415 7.75947 2.94034 7.30966 2.69886C6.86458 2.45739 6.27746 2.33665 5.5483 2.33665H2.79261V15H0.598011ZM21.3242 4.27557C21.2485 3.60322 20.936 3.08239 20.3867 2.71307C19.8375 2.33902 19.1462 2.15199 18.3129 2.15199C17.7163 2.15199 17.2002 2.24669 16.7646 2.43608C16.329 2.62074 15.9904 2.87642 15.7489 3.20312C15.5122 3.52509 15.3938 3.89205 15.3938 4.30398C15.3938 4.64962 15.4743 4.94792 15.6353 5.19886C15.801 5.44981 16.0165 5.66051 16.2816 5.83097C16.5515 5.99669 16.8403 6.13636 17.1481 6.25C17.4558 6.3589 17.7518 6.44886 18.0359 6.51989L19.4563 6.8892C19.9203 7.00284 20.3962 7.15672 20.8839 7.35085C21.3716 7.54498 21.8237 7.80066 22.2404 8.1179C22.6571 8.43513 22.9933 8.82812 23.2489 9.29688C23.5094 9.76562 23.6396 10.3267 23.6396 10.9801C23.6396 11.804 23.4265 12.5355 23.0004 13.1747C22.579 13.8139 21.9658 14.3182 21.1609 14.6875C20.3607 15.0568 19.3924 15.2415 18.256 15.2415C17.167 15.2415 16.2248 15.0687 15.4293 14.723C14.6339 14.3774 14.0112 13.8873 13.5614 13.2528C13.1116 12.6136 12.863 11.8561 12.8157 10.9801H15.0174C15.06 11.5057 15.2305 11.9437 15.5288 12.294C15.8318 12.6397 16.2177 12.8977 16.6864 13.0682C17.1599 13.2339 17.6784 13.3168 18.2418 13.3168C18.8621 13.3168 19.4137 13.2197 19.8967 13.0256C20.3844 12.8267 20.7679 12.5521 21.0472 12.2017C21.3266 11.8466 21.4663 11.4323 21.4663 10.9588C21.4663 10.5279 21.3432 10.1752 21.0969 9.90057C20.8555 9.62595 20.5264 9.39867 20.1097 9.21875C19.6978 9.03883 19.2314 8.88021 18.7106 8.7429L16.9918 8.27415C15.8271 7.95691 14.9038 7.49053 14.2219 6.875C13.5449 6.25947 13.2063 5.44508 13.2063 4.43182C13.2063 3.59375 13.4336 2.86222 13.8881 2.23722C14.3427 1.61222 14.9582 1.12689 15.7347 0.78125C16.5112 0.430871 17.3872 0.255681 18.3626 0.255681C19.3474 0.255681 20.2163 0.428503 20.9691 0.774148C21.7267 1.11979 22.3233 1.59564 22.7589 2.2017C23.1945 2.80303 23.4218 3.49432 23.4407 4.27557H21.3242Z" fill="#FC832C"/>
</svg>
