<svg width="60" height="60" fill="none" xmlns="http://www.w3.org/2000/svg"><path d="M54.514 25.104H52.5V25H30v10h14.129c-2.061 5.821-7.6 10-14.129 10-8.284 0-15-6.716-15-15 0-8.284 6.716-15 15-15a14.92 14.92 0 0 1 9.951 3.799l7.072-7.072C42.556 7.567 36.584 5 30 5 16.194 5 5 16.194 5 30s11.194 25 25 25 25-11.194 25-25c0-1.676-.172-3.313-.486-4.896Z" fill="#FBC02D"/><path d="m7.882 18.364 8.214 6.023C18.32 18.886 23.701 15 30 15a14.92 14.92 0 0 1 9.951 3.799l7.071-7.072C42.557 7.567 36.585 5 30 5c-9.603 0-17.93 5.421-22.118 13.364Z" fill="#E53935"/><path d="M30 55c6.458 0 12.325-2.471 16.761-6.49l-7.737-6.548A14.888 14.888 0 0 1 30 45c-6.503 0-12.024-4.146-14.104-9.933L7.744 41.35c4.137 8.096 12.54 13.65 22.256 13.65Z" fill="#4CAF50"/><path d="m54.514 25.104-.02-.104H30v10h14.129a15.05 15.05 0 0 1-5.109 6.964l.004-.003 7.737 6.548C46.214 49.006 55 42.5 55 30c0-1.676-.172-3.313-.486-4.896Z" fill="#1565C0"/></svg>