<svg width="60" height="60" viewBox="0 0 60 60" fill="none" xmlns="http://www.w3.org/2000/svg">
<path d="M54.5137 25.1037H52.5V25H30V35H44.1287C42.0675 40.8212 36.5287 45 30 45C21.7162 45 15 38.2837 15 30C15 21.7162 21.7162 15 30 15C33.8237 15 37.3025 16.4425 39.9512 18.7987L47.0225 11.7275C42.5575 7.56625 36.585 5 30 5C16.1937 5 5 16.1937 5 30C5 43.8062 16.1937 55 30 55C43.8062 55 55 43.8062 55 30C55 28.3237 54.8275 26.6875 54.5137 25.1037Z" fill="#FBC02D"/>
<path d="M7.88245 18.3638L16.0962 24.3875C18.3187 18.885 23.7012 15 29.9999 15C33.8237 15 37.3024 16.4425 39.9512 18.7987L47.0224 11.7275C42.5574 7.56625 36.5849 5 29.9999 5C20.3974 5 12.0699 10.4212 7.88245 18.3638Z" fill="#E53935"/>
<path d="M30 54.9999C36.4575 54.9999 42.325 52.5286 46.7613 48.5099L39.0238 41.9624C36.5138 43.8636 33.3938 44.9999 30 44.9999C23.4975 44.9999 17.9763 40.8536 15.8963 35.0674L7.74377 41.3486C11.8813 49.4449 20.2838 54.9999 30 54.9999Z" fill="#4CAF50"/>
<path d="M54.5137 25.1038L54.4937 25H52.5H30V35H44.1288C43.1388 37.7963 41.34 40.2075 39.02 41.9637L39.0237 41.9613L46.7612 48.5087C46.2137 49.0062 55 42.5 55 30C55 28.3238 54.8275 26.6875 54.5137 25.1038Z" fill="#1565C0"/>
</svg>
