<svg aria-hidden="true" style="position:absolute;width:0;height:0;overflow:hidden" xmlns="http://www.w3.org/2000/svg"><defs><symbol id="icon-IoReorderThreeOutline" viewBox="0 0 32 32"><path d="M5 11a1 1 0 0 1 1-1h20a1 1 0 0 1 0 2H6a1 1 0 0 1-1-1zm0 5a1 1 0 0 1 1-1h20a1 1 0 0 1 0 2H6a1 1 0 0 1-1-1zm0 5a1 1 0 0 1 1-1h20a1 1 0 0 1 0 2H6a1 1 0 0 1-1-1z"/></symbol><symbol id="icon-clock" viewBox="0 0 32 32"><path stroke-linejoin="round" stroke-linecap="round" stroke-width="2.4" d="M15.999 29.333c7.364 0 13.333-5.969 13.333-13.333S23.362 2.667 15.999 2.667C8.635 2.667 2.666 8.637 2.666 16s5.97 13.333 13.333 13.333z"/><path stroke-linejoin="round" stroke-linecap="round" stroke-width="2.4" d="M16 8v8l5.333 2.667"/></symbol><symbol id="icon-chevron-down" viewBox="0 0 32 32"><path fill="none" stroke="#fbfbfb" style="stroke:var(--color1, #fbfbfb)" stroke-linejoin="round" stroke-linecap="round" stroke-width="3.2" d="m8 12 8 8 8-8"/></symbol><symbol id="icon-point" viewBox="0 0 32 32"><path fill="#fbfbfb" style="fill:var(--color1, #fbfbfb)" d="M32 16c0 8.837-7.163 16-16 16S0 24.837 0 16 7.163 0 16 0s16 7.163 16 16z"/><path fill="#38cd3e" style="fill:var(--color2, #38cd3e)" d="M26.668 16c0 5.891-4.776 10.667-10.667 10.667S5.334 21.891 5.334 16 10.11 5.333 16.001 5.333 26.668 10.109 26.668 16z"/></symbol><symbol id="icon-cross" viewBox="0 0 32 32"><path stroke-linejoin="round" stroke-linecap="round" stroke-width="2.5" d="M24 8 8 24M8 8l16 16"/></symbol><symbol id="icon-star" viewBox="0 0 32 32"><path fill="#ffc531" style="fill:var(--color3, #ffc531);stroke:var(--color3, #ffc531)" stroke="#ffc531" stroke-width="2.4" d="M12.4 9.394 16 2.572l3.6 6.822a2.2 2.2 0 0 0 1.571 1.141l7.601 1.315-5.376 5.532a2.2 2.2 0 0 0-.6 1.846l1.098 7.635-6.922-3.404a2.199 2.199 0 0 0-1.941 0l-6.922 3.404 1.098-7.635a2.2 2.2 0 0 0-.6-1.846L3.231 11.85l7.601-1.315a2.202 2.202 0 0 0 1.571-1.141z"/></symbol><symbol id="icon-heart" viewBox="0 0 32 32"><path stroke-linejoin="round" stroke-linecap="round" stroke-width="2.462" d="M27.787 6.147a7.326 7.326 0 0 0-10.373 0L16.001 7.56l-1.413-1.413a7.333 7.333 0 0 0-10.374 0 7.333 7.333 0 0 0 0 10.374l11.787 11.787 11.787-11.787a7.345 7.345 0 0 0 2.15-5.187 7.33 7.33 0 0 0-2.15-5.187z"/></symbol><symbol id="icon-users" viewBox="0 0 32 32"><path fill="#fbfbfb" style="fill:var(--color1, #fbfbfb)" d="m19.041 22.529-.548 2.044L4.187 20.74l.548-2.044s1.095-4.087 8.248-2.171 6.058 6.004 6.058 6.004zm-.975-10.666c.189-.707.165-1.455-.07-2.149s-.671-1.302-1.252-1.747a3.701 3.701 0 1 0 1.323 3.896zm2.009 6.562a5.63 5.63 0 0 1 1.01 4.652l-.548 2.044 4.087 1.095.548-2.044s.994-3.709-5.097-5.747zm1.504-9.454a3.597 3.597 0 0 0-2.134.074 5.288 5.288 0 0 1-1.593 5.947 3.583 3.583 0 0 0 1.811 1.131 3.705 3.705 0 0 0 4.535-2.618A3.704 3.704 0 0 0 21.58 8.97z"/></symbol><symbol id="icon-question" viewBox="0 0 19 32"><path fill="#fbfbfb" style="fill:var(--color1, #fbfbfb)" d="M4.706 10c0-2.206 1.688-4 3.765-4h1.882c2.076 0 3.765 1.794 3.765 4v.225c0 1.363-.653 2.631-1.729 3.362l-2.482 1.694c-.729.498-1.328 1.182-1.744 1.99s-.633 1.714-.633 2.635V20c0 1.106.841 2 1.882 2s1.882-.894 1.882-2v-.088c0-.512.247-.987.647-1.262l2.482-1.694c2.153-1.475 3.459-4.006 3.459-6.731V10c0-4.419-3.371-8-7.529-8H8.471C4.312 2 .942 5.581.942 10c0 1.106.841 2 1.882 2s1.882-.894 1.882-2zm4.706 20c.624 0 1.223-.263 1.664-.732s.689-1.105.689-1.768-.248-1.299-.689-1.768S10.036 25 9.412 25s-1.223.263-1.664.732c-.441.469-.689 1.105-.689 1.768s.248 1.299.689 1.768S8.788 30 9.412 30z"/></symbol><symbol id="icon-arrow" viewBox="0 0 28 32"><path fill="#fbfbfb" style="fill:var(--color1, #fbfbfb)" d="M24.137 3.149a1.882 1.882 0 0 0-2.126-1.602L5.235 3.905a1.883 1.883 0 0 0 .524 3.728l14.912-2.096 2.096 14.912a1.882 1.882 0 1 0 3.728-.524L24.137 3.149zM3.386 31.604l20.391-27.06-3.007-2.266L.379 29.338l3.007 2.266z"/></symbol><symbol id="icon-check" viewBox="0 0 40 32"><path fill="#fc832c" style="fill:var(--color4, #fc832c)" d="m5 11-5 5 15 15L40 6l-5-5-20 20L5 11z"/></symbol><symbol id="icon-eye" viewBox="0 0 32 32"><path stroke-linejoin="round" stroke-linecap="round" stroke-width="3.2" d="M1.334 16S6.667 5.333 16.001 5.333 30.668 16 30.668 16s-5.333 10.667-14.667 10.667C6.668 26.667 1.334 16 1.334 16z"/><path stroke-linejoin="round" stroke-linecap="round" stroke-width="3.2" d="M16 20a4 4 0 1 0 0-8 4 4 0 0 0 0 8z"/></symbol><symbol id="icon-eye-off" viewBox="0 0 32 32"><path stroke-linejoin="round" stroke-linecap="round" stroke-width="3.2" d="M23.921 23.92a13.43 13.43 0 0 1-7.92 2.747C6.668 26.667 1.334 16 1.334 16a24.605 24.605 0 0 1 6.747-7.92m5.12-2.427a12.161 12.161 0 0 1 2.8-.32C25.334 5.333 30.668 16 30.668 16a24.646 24.646 0 0 1-2.88 4.253m-8.96-1.426a4.01 4.01 0 0 1-2.855 1.273 3.996 3.996 0 0 1-3.779-2.501 3.995 3.995 0 0 1 .056-3.127c.219-.491.534-.932.927-1.298M1.334 1.333l29.333 29.333"/></symbol><symbol id="icon-user" viewBox="0 0 32 32"><path fill="#fbfbfb" style="fill:var(--color1, #fbfbfb)" d="M16 5.333a5.332 5.332 0 1 1 0 10.665 5.332 5.332 0 0 1 0-10.665zm0 13.334c5.893 0 10.667 2.387 10.667 5.333v2.667H5.334V24c0-2.947 4.773-5.333 10.667-5.333z"/></symbol></defs></svg>